<?xml version="1.0" standalone="no"?>
<!DOCTYPE svg PUBLIC "-//W3C//DTD SVG 20010904//EN"
 "http://www.w3.org/TR/2001/REC-SVG-20010904/DTD/svg10.dtd">
<svg version="1.0" xmlns="http://www.w3.org/2000/svg"
 width="980.000000pt" height="980.000000pt" viewBox="0 0 980.000000 980.000000"
 preserveAspectRatio="xMidYMid meet">
<metadata>
Created by potrace 1.14, written by Peter Selinger 2001-2017
</metadata>
<g transform="translate(0.000000,980.000000) scale(0.100000,-0.100000)"
fill="#000000" stroke="none">
<path d="M557 9323 c-4 -3 -84 -7 -179 -9 -261 -5 -283 -9 -258 -39 7 -8 10
-15 7 -15 -3 0 46 -104 109 -230 63 -127 114 -235 114 -240 0 -6 5 -10 10 -10
6 0 10 -6 10 -13 0 -7 38 -89 85 -181 47 -93 85 -174 85 -181 0 -8 4 -15 8
-17 4 -1 21 -30 36 -63 48 -99 122 -249 134 -270 6 -11 36 -72 67 -135 31 -63
60 -119 65 -125 4 -5 9 -14 10 -20 1 -11 248 -509 770 -1557 175 -351 316
-638 313 -638 -3 0 -1 -6 5 -13 15 -18 121 -227 115 -227 -3 0 0 -6 6 -14 15
-17 110 -206 104 -206 -2 0 4 -12 14 -27 10 -16 30 -53 43 -83 14 -30 27 -57
30 -60 4 -3 26 -48 50 -100 24 -52 48 -101 54 -108 8 -11 57 -110 61 -122 5
-20 202 -406 208 -408 4 -2 5 -8 1 -13 -3 -5 0 -9 5 -9 6 0 11 -5 11 -11 0 -8
93 -200 120 -249 5 -8 123 -244 262 -525 139 -280 256 -513 261 -516 5 -3 8
-8 7 -10 -3 -7 24 -64 35 -71 5 -4 7 -8 3 -8 -9 0 62 -142 75 -151 5 -3 8 -9
7 -13 -2 -9 422 -859 433 -867 5 -3 8 -9 8 -13 -2 -10 93 -200 102 -204 4 -2
7 -8 7 -14 0 -14 72 -158 82 -164 4 -3 8 -13 8 -23 0 -10 7 -24 15 -31 8 -7
12 -16 9 -21 -3 -5 0 -9 5 -9 6 0 10 -3 9 -7 -4 -14 353 -709 385 -751 11 -14
-6 -45 400 761 140 279 252 507 249 507 -4 0 -2 4 4 8 9 6 227 436 229 452 1
3 14 30 30 60 59 113 84 165 85 177 0 6 3 13 8 15 4 2 25 41 47 88 22 47 43
87 48 88 4 2 7 10 7 18 0 12 -738 1502 -750 1514 -3 3 -57 111 -120 240 -63
129 -117 237 -120 240 -3 3 -21 39 -40 80 -19 41 -38 77 -42 78 -5 2 -8 8 -8
13 0 13 -144 303 -152 307 -5 2 -8 8 -8 12 0 14 -224 465 -232 468 -5 2 -8 8
-8 13 0 14 -184 383 -192 387 -5 2 -8 8 -8 14 0 15 -143 302 -152 306 -5 2 -8
8 -8 14 0 15 -103 222 -112 226 -5 2 -8 8 -8 13 0 15 -283 583 -292 587 -5 2
-8 8 -8 14 0 14 -223 462 -232 466 -5 2 -8 8 -8 14 0 16 -792 1597 -804 1606
-14 10 -1357 9 -1374 -2 -6 -4 -12 -4 -12 1 0 10 -152 9 -168 -1 -6 -3 -13 -2
-17 4 -4 7 -12 7 -25 0 -12 -6 -21 -7 -25 0 -3 5 -16 6 -28 2 -27 -9 -48 -9
-63 0 -6 4 -14 5 -17 1z"/>
<path d="M7550 9323 c0 -4 -48 -8 -108 -9 -241 -2 -410 -21 -445 -52 -20 -18
-77 -120 -77 -138 0 -7 -4 -14 -9 -16 -5 -1 -24 -34 -43 -73 -19 -38 -107
-212 -195 -385 -306 -599 -361 -710 -355 -710 4 0 2 -4 -4 -8 -7 -4 -31 -47
-54 -97 -24 -49 -47 -93 -52 -96 -6 -3 -10 -10 -10 -15 0 -7 -450 -913 -479
-964 -37 -65 -286 -580 -281 -580 4 0 2 -4 -4 -8 -13 -8 -204 -392 -204 -409
0 -6 -4 -13 -8 -15 -5 -1 -42 -70 -82 -153 -40 -82 -74 -153 -76 -156 -2 -4
33 -81 78 -170 45 -90 80 -164 77 -165 -2 0 2 -8 8 -16 14 -16 113 -213 114
-225 0 -5 5 -13 10 -20 11 -13 152 -296 151 -303 0 -3 4 -11 10 -18 13 -15
101 -195 98 -201 -1 -2 2 -7 7 -10 9 -6 203 -395 204 -408 0 -5 6 -15 12 -23
7 -8 33 -58 57 -110 25 -52 48 -97 51 -100 9 -8 69 -138 69 -149 0 -6 4 -11 8
-11 5 0 16 -19 26 -42 9 -24 15 -43 14 -43 -2 0 7 -15 20 -32 13 -18 20 -33
15 -33 -4 0 -3 -4 2 -8 10 -7 205 -394 206 -409 1 -5 9 -19 19 -33 9 -14 21
-36 25 -50 4 -14 11 -27 14 -30 4 -3 111 -212 238 -465 324 -646 410 -815 424
-831 6 -8 8 -14 5 -14 -4 0 2 -14 14 -30 12 -17 18 -30 14 -30 -3 0 -2 -6 4
-12 5 -7 47 -85 92 -173 141 -272 161 -310 171 -319 5 -6 9 -18 9 -27 0 -10 3
-19 8 -21 4 -1 20 -28 35 -58 41 -80 63 -118 78 -136 8 -10 13 -20 11 -23 -3
-6 33 -70 58 -101 21 -26 27 -27 320 -46 36 -2 469 -7 962 -10 l896 -6 -9 38
c-12 48 -13 53 -23 84 -13 44 -406 838 -907 1832 -38 76 -69 141 -68 144 0 4
-3 10 -8 13 -4 3 -91 173 -193 376 -102 204 -187 372 -190 375 -3 3 -16 30
-30 60 -14 30 -31 61 -37 68 -7 7 -13 22 -13 32 0 10 -4 21 -8 24 -5 3 -66
121 -138 263 -71 142 -132 260 -136 261 -5 2 -8 11 -8 21 0 9 -4 21 -9 26 -10
12 -213 413 -210 417 1 2 -12 26 -28 53 -15 28 -66 124 -112 215 -45 91 -86
172 -91 180 -4 8 -14 29 -21 45 -8 17 -26 51 -41 77 -14 25 -24 49 -21 52 4 3
0 6 -7 6 -7 0 -10 3 -7 7 4 3 3 11 -2 17 -5 6 -32 58 -61 115 -37 74 -49 106
-41 114 6 6 11 17 11 24 0 8 5 19 10 26 12 14 161 316 158 319 -1 2 10 21 23
43 14 22 31 56 39 75 7 19 17 40 21 45 7 9 109 214 202 405 18 36 35 67 40 68
4 2 7 8 7 14 0 13 153 321 163 329 5 3 8 8 6 10 -4 6 355 723 366 731 5 4 6 8
2 8 -9 0 22 61 36 71 5 3 8 8 6 10 -4 6 124 264 133 267 4 2 8 9 8 15 0 7 58
128 129 270 72 141 127 257 124 257 -3 0 0 8 8 18 24 28 61 102 52 102 -4 0
-3 4 2 8 13 9 107 192 98 192 -3 0 1 8 9 18 8 9 32 53 53 97 21 44 43 83 49
87 6 4 8 8 3 8 -8 0 44 102 58 112 6 4 7 8 3 8 -4 0 20 52 53 116 32 64 57
119 55 123 -3 4 -741 5 -1351 1 -5 0 -61 1 -123 3 -61 1 -112 0 -112 -3 0 -8
-44 -5 -58 4 -7 4 -12 4 -12 -1z"/>
</g>
</svg>
